<?xml version="1.0" encoding="UTF-8"?>
<svg version="1.1" xmlns="http://www.w3.org/2000/svg" width="131" height="118">
<path d="M0 0 C1.85146582 0.04516955 3.70303676 0.08622985 5.5546875 0.12304688 C10.08072542 0.22198557 14.60171141 0.37711932 19.125 0.5625 C19.62 2.5425 19.62 2.5425 20.125 4.5625 C20.785 4.2325 21.445 3.9025 22.125 3.5625 C27.23170835 1.86026388 31.38749933 1.7979997 36.25 3.9375 C37.19875 4.47375 38.1475 5.01 39.125 5.5625 C41.11367713 6.26221973 43.11108051 6.93914397 45.125 7.5625 C45.125 8.2225 45.125 8.8825 45.125 9.5625 C51.11820151 11.02183748 56.98345775 11.97759121 63.125 12.5625 C63.125 13.2225 63.125 13.8825 63.125 14.5625 C65.105 14.5625 67.085 14.5625 69.125 14.5625 C69.34414062 15.32175781 69.56328125 16.08101562 69.7890625 16.86328125 C71.63232652 23.18864773 71.63232652 23.18864773 76.1875 27.625 C77.156875 27.934375 78.12625 28.24375 79.125 28.5625 C82.125 30.5625 82.125 30.5625 82.8125 33.1875 C82.915625 33.97125 83.01875 34.755 83.125 35.5625 C84.775 35.8925 86.425 36.2225 88.125 36.5625 C89.115 41.0175 89.115 41.0175 90.125 45.5625 C90.785 45.5625 91.445 45.5625 92.125 45.5625 C92.32586443 49.27849191 92.2769437 50.33458445 90.125 53.5625 C90.08245644 55.56204746 90.08419217 57.56291636 90.125 59.5625 C89.80119874 60.89818021 89.46842449 62.23173011 89.125 63.5625 C89.125 64.42875 89.125 65.295 89.125 66.1875 C89.125 68.5625 89.125 68.5625 88.125 70.5625 C88.145625 71.366875 88.16625 72.17125 88.1875 73 C88.125 75.5625 88.125 75.5625 86.125 78.5625 C85.99738281 79.34496094 85.86976562 80.12742187 85.73828125 80.93359375 C84.96224057 84.26018852 83.49021439 86.01093467 81.3125 88.625 C80.62542969 89.46160156 79.93835938 90.29820313 79.23046875 91.16015625 C77.27506237 93.39127856 75.25060832 95.49421146 73.125 97.5625 C74.7028125 97.9646875 74.7028125 97.9646875 76.3125 98.375 C79.8046416 99.46271624 82.10327185 100.57258147 85.125 102.5625 C85.81335938 102.96984375 86.50171875 103.3771875 87.2109375 103.796875 C87.94570312 104.23515625 88.68046875 104.6734375 89.4375 105.125 C90.48357422 105.74568359 90.48357422 105.74568359 91.55078125 106.37890625 C92.07027344 106.76949219 92.58976563 107.16007812 93.125 107.5625 C93.125 108.2225 93.125 108.8825 93.125 109.5625 C87.58603154 109.1009193 82.72852101 107.81864901 78.125 104.5625 C77.795 103.5725 77.465 102.5825 77.125 101.5625 C75.99320312 101.59859375 74.86140625 101.6346875 73.6953125 101.671875 C68.96764674 101.66771149 64.59762481 100.85142365 60 99.8125 C59.22785156 99.65523438 58.45570312 99.49796875 57.66015625 99.3359375 C52.34032993 98.15778176 48.06447986 96.50197986 44.125 92.5625 C43.94066406 93.31273438 43.75632812 94.06296875 43.56640625 94.8359375 C40.81678943 104.53902973 35.63213916 111.95064769 27.125 117.5625 C21.89236065 117.70785109 17.88320234 113.82119444 14.125 110.5625 C11.9375 108.125 11.9375 108.125 10.125 105.5625 C9.68027344 104.94632812 9.23554687 104.33015625 8.77734375 103.6953125 C7.54938428 101.99190354 6.33596421 100.27803264 5.125 98.5625 C1.08098259 100.77031491 -1.90909237 103.40352565 -5.1875 106.625 C-12.21476518 113.09648951 -17.52527416 113.89641878 -26.875 113.5625 C-26.875 112.2425 -26.875 110.9225 -26.875 109.5625 C-25.32039063 109.19898437 -25.32039063 109.19898437 -23.734375 108.828125 C-22.36440071 108.49032312 -20.99461885 108.15174016 -19.625 107.8125 C-18.94308594 107.65523438 -18.26117187 107.49796875 -17.55859375 107.3359375 C-13.29105435 106.25869454 -10.4982898 105.17122249 -7.875 101.5625 C-8.03621482 97.12909245 -9.18572551 93.61675878 -10.875 89.5625 C-10.875 88.5725 -10.875 87.5825 -10.875 86.5625 C-12.0196875 86.1603125 -12.0196875 86.1603125 -13.1875 85.75 C-15.81258796 84.59007741 -16.89964466 83.53785534 -18.875 81.5625 C-19.535 81.3975 -20.195 81.2325 -20.875 81.0625 C-23.35759477 80.44185131 -24.32592868 79.57629271 -25.875 77.5625 C-25.875 76.5725 -25.875 75.5825 -25.875 74.5625 C-26.865 74.5625 -27.855 74.5625 -28.875 74.5625 C-29.865 70.6025 -30.855 66.6425 -31.875 62.5625 C-33.195 62.2325 -34.515 61.9025 -35.875 61.5625 C-39.11447337 55.78863815 -38.63208998 48.76529655 -38.75 42.3125 C-38.7623468 41.63909576 -38.7746936 40.96569153 -38.78741455 40.2718811 C-38.87472675 28.96023124 -36.65726102 21.56054084 -29.0859375 13.10546875 C-28.53534668 12.54706299 -27.98475586 11.98865723 -27.41748047 11.41333008 C-25.75189449 9.59404832 -25.75189449 9.59404832 -24.83642578 7.1394043 C-20.29769675 -2.97607239 -9.45402291 -0.39893568 0 0 Z M22.125 29.5625 C22.125 31.5425 22.125 33.5225 22.125 35.5625 C24.35407395 36.04209778 26.58326297 36.5211608 28.8125 37 C30.05386719 37.26683594 31.29523438 37.53367187 32.57421875 37.80859375 C35.42112015 38.41305136 38.26955626 39.00014684 41.125 39.5625 C40.795 38.5725 40.465 37.5825 40.125 36.5625 C38.805 36.5625 37.485 36.5625 36.125 36.5625 C35.815625 35.923125 35.50625 35.28375 35.1875 34.625 C34.2904837 32.62639179 34.2904837 32.62639179 33.125 31.5625 C30.79202567 31.52157063 28.45794775 31.52008277 26.125 31.5625 C25.795 30.9025 25.465 30.2425 25.125 29.5625 C24.135 29.5625 23.145 29.5625 22.125 29.5625 Z M8.83203125 33.55078125 C7.125 34.5625 7.125 34.5625 4.3125 35.625 C1.7926871 36.46917925 1.7926871 36.46917925 0.125 39.5625 C0.43340599 41.71524948 0.43340599 41.71524948 1.125 43.5625 C1.58648437 43.23636719 2.04796875 42.91023438 2.5234375 42.57421875 C7.81632301 39.02819466 12.9650626 37.11510717 19.125 35.5625 C19.125 33.9125 19.125 32.2625 19.125 30.5625 C14.85898742 30.04540757 12.4286858 31.31756437 8.83203125 33.55078125 Z M22.125 37.5625 C22.455 39.5425 22.785 41.5225 23.125 43.5625 C24.775 43.8925 26.425 44.2225 28.125 44.5625 C28.785 42.5825 29.445 40.6025 30.125 38.5625 C27.485 38.2325 24.845 37.9025 22.125 37.5625 Z M9 40.8125 C8.15179688 41.23015625 7.30359375 41.6478125 6.4296875 42.078125 C3.99755611 43.6445825 2.69727985 45.1578367 1.125 47.5625 C8.45127475 48.03516289 13.49884327 46.66116202 20.125 43.5625 C19.795 41.9125 19.465 40.2625 19.125 38.5625 C15.10288816 38.30300891 12.58127101 38.99448475 9 40.8125 Z M34.125 43.5625 C33.795 44.5525 33.465 45.5425 33.125 46.5625 C35.765 48.5425 38.405 50.5225 41.125 52.5625 C41.455 50.9125 41.785 49.2625 42.125 47.5625 C41.361875 47.27375 40.59875 46.985 39.8125 46.6875 C37.125 45.5625 37.125 45.5625 34.125 43.5625 Z M15.125 47.5625 C14.47286708 49.58713255 14.47286708 49.58713255 14.125 51.5625 C12.990625 51.85125 11.85625 52.14 10.6875 52.4375 C9.511875 52.80875 8.33625 53.18 7.125 53.5625 C6.795 54.2225 6.465 54.8825 6.125 55.5625 C7.445 55.8925 8.765 56.2225 10.125 56.5625 C9.795 58.2125 9.465 59.8625 9.125 61.5625 C8.320625 61.68625 7.51625 61.81 6.6875 61.9375 C5.841875 62.14375 4.99625 62.35 4.125 62.5625 C3.795 63.2225 3.465 63.8825 3.125 64.5625 C8.405 64.5625 13.685 64.5625 19.125 64.5625 C19.125 61.2625 19.125 57.9625 19.125 54.5625 C19.785 54.5625 20.445 54.5625 21.125 54.5625 C20.795 51.9225 20.465 49.2825 20.125 46.5625 C17.1995356 46.3388932 17.1995356 46.3388932 15.125 47.5625 Z M23.125 46.5625 C23.125 47.2225 23.125 47.8825 23.125 48.5625 C24.445 48.2325 25.765 47.9025 27.125 47.5625 C25.805 47.2325 24.485 46.9025 23.125 46.5625 Z M31.125 48.5625 C30.795 49.5525 30.465 50.5425 30.125 51.5625 C27.815 51.8925 25.505 52.2225 23.125 52.5625 C23.125 56.5225 23.125 60.4825 23.125 64.5625 C29.065 64.5625 35.005 64.5625 41.125 64.5625 C40.465 61.5925 39.805 58.6225 39.125 55.5625 C38.465 56.8825 37.805 58.2025 37.125 59.5625 C35.145 59.5625 33.165 59.5625 31.125 59.5625 C31.125 57.5825 31.125 55.6025 31.125 53.5625 C32.775 53.2325 34.425 52.9025 36.125 52.5625 C34.81299596 51.20817325 33.47868596 49.87516518 32.125 48.5625 C31.795 48.5625 31.465 48.5625 31.125 48.5625 Z M0.125 52.5625 C0.07601562 53.41714844 0.02703125 54.27179687 -0.0234375 55.15234375 C-0.09820312 56.25707031 -0.17296875 57.36179687 -0.25 58.5 C-0.35441406 60.15322266 -0.35441406 60.15322266 -0.4609375 61.83984375 C-0.59757812 62.73832031 -0.73421875 63.63679688 -0.875 64.5625 C-1.865 65.0575 -1.865 65.0575 -2.875 65.5625 C-1.885 65.5625 -0.895 65.5625 0.125 65.5625 C0.32996094 64.87542969 0.53492188 64.18835938 0.74609375 63.48046875 C1.01550781 62.57941406 1.28492188 61.67835937 1.5625 60.75 C1.82933594 59.85667969 2.09617187 58.96335937 2.37109375 58.04296875 C2.92887873 56.20776945 3.51844575 54.38216274 4.125 52.5625 C2.805 52.5625 1.485 52.5625 0.125 52.5625 Z M48.125 54.5625 C45.94168311 56.32386355 45.94168311 56.32386355 45.9296875 58.5078125 C45.96449219 59.58675781 45.96449219 59.58675781 46 60.6875 C46.04125 61.96625 46.0825 63.245 46.125 64.5625 C46.785 64.5625 47.445 64.5625 48.125 64.5625 C49.26852916 62.27544169 49.22834439 60.96985238 49.1875 58.4375 C49.166875 57.15875 49.14625 55.88 49.125 54.5625 C48.795 54.5625 48.465 54.5625 48.125 54.5625 Z M-9.875 59.5625 C-9.875 61.2125 -9.875 62.8625 -9.875 64.5625 C-9.215 63.2425 -8.555 61.9225 -7.875 60.5625 C-8.535 60.2325 -9.195 59.9025 -9.875 59.5625 Z M4.125 67.5625 C4.54248582 72.29400601 6.63425233 75.46357095 10.125 78.5625 C13.38188524 80.47663431 16.29716357 81.5625 20.125 81.5625 C20.125 78.2625 20.125 74.9625 20.125 71.5625 C18.475 71.5625 16.825 71.5625 15.125 71.5625 C14.795 70.5725 14.465 69.5825 14.125 68.5625 C16.105 68.5625 18.085 68.5625 20.125 68.5625 C19.795 67.9025 19.465 67.2425 19.125 66.5625 C13.99916389 66.45998328 9.17502222 66.52659801 4.125 67.5625 Z M23.125 66.5625 C23.455 67.5525 23.785 68.5425 24.125 69.5625 C25.445 69.2325 26.765 68.9025 28.125 68.5625 C27.795 69.2225 27.465 69.8825 27.125 70.5625 C26.465 70.706875 25.805 70.85125 25.125 71 C24.465 71.185625 23.805 71.37125 23.125 71.5625 C21.9672494 75.03575181 22.05633348 77.92317448 22.125 81.5625 C28.42794359 81.29987735 32.75702301 79.19812264 37.125 74.5625 C38.0938059 71.42984521 38.0938059 71.42984521 38.125 68.5625 C38.785 67.9025 39.445 67.2425 40.125 66.5625 C34.515 66.5625 28.905 66.5625 23.125 66.5625 Z M45.125 66.5625 C46.125 68.5625 46.125 68.5625 46.125 68.5625 Z M-2.875 67.5625 C-3.06215868 75.02835236 -3.06215868 75.02835236 -0.42578125 81.8125 C2.69473623 84.95332454 6.12888151 87.62152816 10.125 89.5625 C10.785 89.5625 11.445 89.5625 12.125 89.5625 C12.125 88.5725 12.125 87.5825 12.125 86.5625 C13.775 86.2325 15.425 85.9025 17.125 85.5625 C17.125 84.9025 17.125 84.2425 17.125 83.5625 C16.20267578 83.16417969 16.20267578 83.16417969 15.26171875 82.7578125 C14.04935547 82.22800781 14.04935547 82.22800781 12.8125 81.6875 C11.61173828 81.16542969 11.61173828 81.16542969 10.38671875 80.6328125 C8.125 79.5625 8.125 79.5625 5.125 77.5625 C5.455 79.5425 5.785 81.5225 6.125 83.5625 C5.465 83.2325 4.805 82.9025 4.125 82.5625 C3.63742967 80.5472093 3.15246404 78.53109946 2.69921875 76.5078125 C2.01656508 74.19514904 1.07291587 72.97916609 -0.875 71.5625 C0.115 71.2325 1.105 70.9025 2.125 70.5625 C1.795 69.5725 1.465 68.5825 1.125 67.5625 C-0.195 67.5625 -1.515 67.5625 -2.875 67.5625 Z M40.125 74.5625 C39.795 76.2125 39.465 77.8625 39.125 79.5625 C38.135 79.2325 37.145 78.9025 36.125 78.5625 C34.45858994 79.553255 34.45858994 79.553255 33.125 81.5625 C32.85154521 84.28096235 32.99008715 86.81927199 33.125 89.5625 C37.24800267 87.82897463 37.24800267 87.82897463 40.5 84.875 C41.44074078 81.39425913 41.24499499 78.16234981 41.125 74.5625 C40.795 74.5625 40.465 74.5625 40.125 74.5625 Z M18.125 87.5625 C17.465 88.2225 16.805 88.8825 16.125 89.5625 C17.115 90.0575 17.115 90.0575 18.125 90.5625 C18.785 90.2325 19.445 89.9025 20.125 89.5625 C20.125 88.9025 20.125 88.2425 20.125 87.5625 C19.465 87.5625 18.805 87.5625 18.125 87.5625 Z M39.125 90.5625 C37.52722476 92.74001179 37.52722476 92.74001179 36 95.4375 C35.46117188 96.34242187 34.92234375 97.24734375 34.3671875 98.1796875 C32.9709107 100.41022022 32.9709107 100.41022022 33.125 102.5625 C32.485625 102.376875 31.84625 102.19125 31.1875 102 C28.24945909 101.58027987 26.65809237 101.8137586 23.8125 102.375 C20.87595421 102.77632792 19.542157 102.78723599 16.90625 101.3671875 C15.55344477 100.32229689 14.23079747 99.23658959 12.94921875 98.10546875 C11.09950718 96.54093755 9.32417626 95.55771221 7.125 94.5625 C14.87324668 107.04787728 14.87324668 107.04787728 27.125 114.5625 C37.11014343 104.0039669 37.11014343 104.0039669 41.125 90.5625 C40.465 90.5625 39.805 90.5625 39.125 90.5625 Z M23.125 94.5625 C23.125 96.2125 23.125 97.8625 23.125 99.5625 C28.68732689 99.43275641 28.68732689 99.43275641 33.125 96.625 C34.2704245 94.64458531 34.2704245 94.64458531 34.125 92.5625 C30.19603605 92.5625 26.92606772 93.56549863 23.125 94.5625 Z M13.125 93.5625 C14.775 95.2125 16.425 96.8625 18.125 98.5625 C18.455 97.2425 18.785 95.9225 19.125 94.5625 C16.155 94.0675 16.155 94.0675 13.125 93.5625 Z " fill="#DE00EA" transform="translate(37.875,-0.5625)"/>
<path d="M0 0 C1.85146582 0.04516955 3.70303676 0.08622985 5.5546875 0.12304688 C10.08072542 0.22198557 14.60171141 0.37711932 19.125 0.5625 C19.62 2.5425 19.62 2.5425 20.125 4.5625 C20.785 4.2325 21.445 3.9025 22.125 3.5625 C27.23170835 1.86026388 31.38749933 1.7979997 36.25 3.9375 C37.19875 4.47375 38.1475 5.01 39.125 5.5625 C41.11367713 6.26221973 43.11108051 6.93914397 45.125 7.5625 C45.125 8.2225 45.125 8.8825 45.125 9.5625 C51.11820151 11.02183748 56.98345775 11.97759121 63.125 12.5625 C62.55075917 15.89309682 61.63211671 17.33395181 59.125 19.5625 C50.36300893 27.87126677 50.36300893 27.87126677 45.5546875 38.55859375 C45.50430398 41.57198939 45.50430398 41.57198939 46.125 45.5625 C43.155 43.5825 40.185 41.6025 37.125 39.5625 C38.115 38.9025 39.105 38.2425 40.125 37.5625 C40.84882467 35.50324861 40.84882467 35.50324861 41.125 33.5625 C40.465 33.5625 39.805 33.5625 39.125 33.5625 C38.815625 32.469375 38.50625 31.37625 38.1875 30.25 C37.18025591 27.95701115 36.49392489 26.80184724 34.37890625 25.4296875 C26.99514567 22.63876148 18.37995503 22.35826744 10.8125 24.5 C6.30524337 27.95905741 1.69061331 32.43127337 -0.875 37.5625 C-0.215 37.5625 0.445 37.5625 1.125 37.5625 C0.71929768 43.54660916 -0.00037107 45.91294529 -3.875 50.5625 C-7.41460165 57.77207143 -7.41460165 57.77207143 -8.875 65.5625 C-11.185 65.5625 -13.495 65.5625 -15.875 65.5625 C-15.875 66.2225 -15.875 66.8825 -15.875 67.5625 C-13.565 67.5625 -11.255 67.5625 -8.875 67.5625 C-8.2041288 69.1857687 -7.53842971 70.81117578 -6.875 72.4375 C-6.50375 73.34242187 -6.1325 74.24734375 -5.75 75.1796875 C-4.875 77.5625 -4.875 77.5625 -4.875 79.5625 C-6.51290712 80.60894066 -8.18508021 81.6023183 -9.875 82.5625 C-11.22131825 83.54494845 -12.55941297 84.53926564 -13.875 85.5625 C-14.98875 84.6034375 -14.98875 84.6034375 -16.125 83.625 C-18.69834184 81.69499362 -19.8914679 81.25865749 -22.875 80.5625 C-24.625 79.1875 -24.625 79.1875 -25.875 77.5625 C-25.875 76.5725 -25.875 75.5825 -25.875 74.5625 C-26.865 74.5625 -27.855 74.5625 -28.875 74.5625 C-29.865 70.6025 -30.855 66.6425 -31.875 62.5625 C-33.195 62.2325 -34.515 61.9025 -35.875 61.5625 C-39.11447337 55.78863815 -38.63208998 48.76529655 -38.75 42.3125 C-38.7623468 41.63909576 -38.7746936 40.96569153 -38.78741455 40.2718811 C-38.87472675 28.96023124 -36.65726102 21.56054084 -29.0859375 13.10546875 C-28.53534668 12.54706299 -27.98475586 11.98865723 -27.41748047 11.41333008 C-25.75189449 9.59404832 -25.75189449 9.59404832 -24.83642578 7.1394043 C-20.29769675 -2.97607239 -9.45402291 -0.39893568 0 0 Z " fill="#E61801" transform="translate(37.875,-0.5625)"/>
<path d="M0 0 C1.85146582 0.04516955 3.70303676 0.08622985 5.5546875 0.12304688 C10.08072542 0.22198557 14.60171141 0.37711932 19.125 0.5625 C19.34033203 6.26953125 19.34033203 6.26953125 17.40234375 8.90625 C16.63019531 9.6178125 15.85804687 10.329375 15.0625 11.0625 C14.23878906 11.8359375 13.41507813 12.609375 12.56640625 13.40625 C10.5728966 15.16691772 8.55609016 16.8764124 6.5 18.5625 C3.016423 21.457417 0.45329422 24.85605948 -2.2578125 28.46484375 C-4.26513777 31.06854827 -6.49281329 33.29942262 -8.875 35.5625 C-10.6938426 37.40908094 -12.50964968 39.25859502 -14.32421875 41.109375 C-15.875 42.5625 -15.875 42.5625 -17.875 43.5625 C-18.8965705 45.21603303 -19.89101322 46.88632942 -20.875 48.5625 C-22.56262332 51.02988789 -24.31279521 53.45137183 -26.0625 55.875 C-26.52591797 56.52017578 -26.98933594 57.16535156 -27.46679688 57.83007812 C-28.60113506 59.40879622 -29.73782862 60.98582148 -30.875 62.5625 C-33.25 62.375 -33.25 62.375 -35.875 61.5625 C-38.98188358 55.63448525 -38.63044016 48.85558541 -38.75 42.3125 C-38.7623468 41.63909576 -38.7746936 40.96569153 -38.78741455 40.2718811 C-38.87472675 28.96023124 -36.65726102 21.56054084 -29.0859375 13.10546875 C-28.53534668 12.54706299 -27.98475586 11.98865723 -27.41748047 11.41333008 C-25.75189449 9.59404832 -25.75189449 9.59404832 -24.83642578 7.1394043 C-20.29769675 -2.97607239 -9.45402291 -0.39893568 0 0 Z " fill="#38ED00" transform="translate(37.875,-0.5625)"/>
<path d="M0 0 C0.73046875 2.06640625 0.73046875 2.06640625 1.1875 4.5625 C1.34605469 5.38878906 1.50460938 6.21507812 1.66796875 7.06640625 C1.77753906 7.70449219 1.88710937 8.34257813 2 9 C2.66 9 3.32 9 4 9 C4.20086443 12.71599191 4.1519437 13.77208445 2 17 C1.95745644 18.99954746 1.95919217 21.00041636 2 23 C1.67619874 24.33568021 1.34342449 25.66923011 1 27 C1 27.86625 1 28.7325 1 29.625 C1 32 1 32 0 34 C0.020625 34.804375 0.04125 35.60875 0.0625 36.4375 C0 39 0 39 -2 42 C-2.12761719 42.78246094 -2.25523438 43.56492188 -2.38671875 44.37109375 C-3.16275943 47.69768852 -4.63478561 49.44843467 -6.8125 52.0625 C-7.49957031 52.89910156 -8.18664062 53.73570313 -8.89453125 54.59765625 C-14.43363683 60.91778599 -14.43363683 60.91778599 -18.875 61.5625 C-25.49581338 61.28571014 -32.015235 58.71287425 -38 56 C-38.33 55.34 -38.66 54.68 -39 54 C-40.64363134 53.27840576 -42.31050386 52.60648579 -44 52 C-43.8125 49.75 -43.8125 49.75 -43 47 C-41.33784732 45.66104368 -39.67036393 44.32869858 -38 43 C-35.57809864 39.72939817 -33.50116512 36.38427547 -32.11328125 32.55078125 C-28.95051498 25.3041624 -21.75020987 19.50325829 -15.7265625 14.5703125 C-12.6793646 11.79887912 -11.11223662 9.29079487 -9.625 5.4375 C-7.42909221 0.79231045 -5.17572362 -1.72524121 0 0 Z " fill="#EFE000" transform="translate(126,36)"/>
<path d="M0 0 C0.21914062 0.75925781 0.43828125 1.51851562 0.6640625 2.30078125 C2.50732652 8.62614773 2.50732652 8.62614773 7.0625 13.0625 C8.031875 13.371875 9.00125 13.68125 10 14 C13 16 13 16 13.9375 18.8125 C14.01842164 22.9395035 12.70213768 23.98904658 10 27 C9.690625 27.825 9.38125 28.65 9.0625 29.5 C7.66298862 32.79296795 5.56346416 34.49303092 3 37 C1.95504839 38.11812656 0.91487868 39.24073644 -0.12109375 40.3671875 C-1.22633583 41.53667259 -2.33180771 42.70594055 -3.4375 43.875 C-3.98470703 44.48085938 -4.53191406 45.08671875 -5.09570312 45.7109375 C-6.66961039 47.35003619 -8.09069064 48.76594116 -10 50 C-13.41015625 49.8828125 -13.41015625 49.8828125 -16 49 C-16.25523438 48.03900391 -16.25523438 48.03900391 -16.515625 47.05859375 C-18.19841248 41.03788726 -18.19841248 41.03788726 -21.125 35.5625 C-23.88115828 30.84079458 -25.08622894 26.43114471 -24 21 C-21.18051721 15.72981513 -17.01191528 11.3768891 -13 7 C-12.31292969 6.19304688 -11.62585938 5.38609375 -10.91796875 4.5546875 C-7.48267757 0.72391133 -5.42065784 -0.92547817 0 0 Z " fill="#0200EE" transform="translate(107,14)"/>
<path d="M0 0 C7.91491117 4.76119414 14.97940507 10.01144611 22 16 C22.7734375 15.67386719 23.546875 15.34773438 24.34375 15.01171875 C27 14 27 14 29.5 13.8125 C32.82492998 12.73189776 33.70014118 10.70190393 35.53125 7.85546875 C38.04979262 4.67379922 41.46943703 2.90107237 45 1 C45.495 2.485 45.495 2.485 46 4 C48.50447516 5.21869929 48.50447516 5.21869929 51 6 C51 6.66 51 7.32 51 8 C51.59167969 8.12117188 52.18335937 8.24234375 52.79296875 8.3671875 C53.97826172 8.61855469 53.97826172 8.61855469 55.1875 8.875 C55.96480469 9.03742188 56.74210937 9.19984375 57.54296875 9.3671875 C60 10 60 10 62.32421875 11.01171875 C66.91184505 12.70612671 71.76071603 12.8500528 76.6015625 13.33984375 C80.15660508 14.03042099 80.77035086 14.39233563 83 17 C85.56625796 18.34462078 88.18084792 19.52525297 90.8203125 20.71875 C93 22 93 22 94 25 C88.46103154 24.5384193 83.60352101 23.25614901 79 20 C78.505 18.515 78.505 18.515 78 17 C76.30230469 17.05414063 76.30230469 17.05414063 74.5703125 17.109375 C69.84264674 17.10521149 65.47262481 16.28892365 60.875 15.25 C60.10285156 15.09273437 59.33070312 14.93546875 58.53515625 14.7734375 C53.21532993 13.59528176 48.93947986 11.93947986 45 8 C44.81566406 8.75023438 44.63132812 9.50046875 44.44140625 10.2734375 C41.69178943 19.97652973 36.50713916 27.38814769 28 33 C22.76736065 33.14535109 18.75820234 29.25869444 15 26 C12.8125 23.5625 12.8125 23.5625 11 21 C10.55527344 20.38382813 10.11054687 19.76765625 9.65234375 19.1328125 C8.42438428 17.42940354 7.21096421 15.71553264 6 14 C1.95598259 16.20781491 -1.03409237 18.84102565 -4.3125 22.0625 C-11.33976518 28.53398951 -16.65027416 29.33391878 -26 29 C-26 27.68 -26 26.36 -26 25 C-24.53240234 24.70609375 -24.53240234 24.70609375 -23.03515625 24.40625 C-15.17800014 22.67213934 -9.65869966 20.89594884 -3.9296875 14.90234375 C-2 13 -2 13 0.7109375 11.41015625 C1.46632813 10.94480469 2.22171875 10.47945312 3 10 C3.66666667 7.5 3.66666667 7.5 3 5 C1.56249809 3.31201173 1.56249809 3.31201173 0 2 C0 1.34 0 0.68 0 0 Z M40 6 C38.40222476 8.17751179 38.40222476 8.17751179 36.875 10.875 C36.33617188 11.77992187 35.79734375 12.68484375 35.2421875 13.6171875 C33.8459107 15.84772022 33.8459107 15.84772022 34 18 C33.360625 17.814375 32.72125 17.62875 32.0625 17.4375 C29.12445909 17.01777987 27.53309237 17.2512586 24.6875 17.8125 C21.75095421 18.21382792 20.417157 18.22473599 17.78125 16.8046875 C16.42844477 15.75979689 15.10579747 14.67408959 13.82421875 13.54296875 C11.97450718 11.97843755 10.19917626 10.99521221 8 10 C15.74824668 22.48537728 15.74824668 22.48537728 28 30 C37.98514343 19.4414669 37.98514343 19.4414669 42 6 C41.34 6 40.68 6 40 6 Z " fill="#010002" transform="translate(37,84)"/>
<path d="M0 0 C0.88300781 0.36222656 1.76601562 0.72445313 2.67578125 1.09765625 C3.33964844 1.37480469 4.00351563 1.65195313 4.6875 1.9375 C4.6875 2.5975 4.6875 3.2575 4.6875 3.9375 C10.68070151 5.39683748 16.54595775 6.35259121 22.6875 6.9375 C22.11237923 10.33661124 21.09499381 11.82531392 18.5625 14.125 C14.97928916 17.51651643 12.1297324 21.20643176 9.265625 25.21484375 C8.48445313 26.06755859 8.48445313 26.06755859 7.6875 26.9375 C6.6975 26.9375 5.7075 26.9375 4.6875 26.9375 C5.0175 24.6275 5.3475 22.3175 5.6875 19.9375 C4.800625 19.834375 3.91375 19.73125 3 19.625 C-0.3125 18.9375 -0.3125 18.9375 -2.5625 17.5 C-9.18515159 13.73712978 -17.82692191 13.09316712 -25.3125 13.9375 C-27.8587093 14.70532576 -29.91825075 15.71690235 -32.3125 16.9375 C-33.9767135 17.61026716 -35.64236582 18.27956835 -37.3125 18.9375 C-35.7059848 14.44141385 -32.17621408 11.95996095 -28.625 9 C-28.02494141 8.48759766 -27.42488281 7.97519531 -26.80664062 7.44726562 C-17.47125077 -0.44419712 -12.07338474 -4.99033236 0 0 Z " fill="#EB1900" transform="translate(78.3125,5.0625)"/>
<path d="M0 0 C1.85330519 1.04938388 1.85330519 1.04938388 4.69140625 1.90234375 C4.36140625 4.21234375 4.03140625 6.52234375 3.69140625 8.90234375 C4.35140625 8.90234375 5.01140625 8.90234375 5.69140625 8.90234375 C5.54909817 10.31936888 5.40239879 11.73595335 5.25390625 13.15234375 C5.17269531 13.94125 5.09148437 14.73015625 5.0078125 15.54296875 C4.69140625 17.90234375 4.69140625 17.90234375 3.69140625 21.90234375 C1.05140625 19.92234375 -1.58859375 17.94234375 -4.30859375 15.90234375 C-3.31859375 15.24234375 -2.32859375 14.58234375 -1.30859375 13.90234375 C-0.58476908 11.84309236 -0.58476908 11.84309236 -0.30859375 9.90234375 C-0.96859375 9.90234375 -1.62859375 9.90234375 -2.30859375 9.90234375 C-2.61796875 8.80921875 -2.92734375 7.71609375 -3.24609375 6.58984375 C-4.25333784 4.2968549 -4.93966886 3.14169099 -7.0546875 1.76953125 C-14.43844808 -1.02139477 -23.05363872 -1.30188881 -30.62109375 0.83984375 C-35.12835038 4.29890116 -39.74298044 8.77111712 -42.30859375 13.90234375 C-41.64859375 13.90234375 -40.98859375 13.90234375 -40.30859375 13.90234375 C-40.69989789 19.67407988 -41.22158756 22.57492543 -45.30859375 26.90234375 C-46.31433153 28.23135439 -47.31654783 29.56308176 -48.30859375 30.90234375 C-50.78360221 21.64168711 -49.04448324 16.05973222 -44.3125 7.8671875 C-41.75404619 4.0818728 -39.10591073 1.40656958 -35.30859375 -1.09765625 C-33.97828125 -1.99484375 -33.97828125 -1.99484375 -32.62109375 -2.91015625 C-22.7181765 -7.99543808 -9.30287632 -5.14668523 0 0 Z " fill="#0A0101" transform="translate(79.30859375,23.09765625)"/>
<path d="M0 0 C2.3104282 1.51841529 3.00342924 2.68106643 3.92578125 5.265625 C3.92578125 6.255625 3.92578125 7.245625 3.92578125 8.265625 C4.58578125 8.265625 5.24578125 8.265625 5.92578125 8.265625 C5.59578125 9.255625 5.26578125 10.245625 4.92578125 11.265625 C3.60578125 11.265625 2.28578125 11.265625 0.92578125 11.265625 C0.49265625 10.62625 0.05953125 9.986875 -0.38671875 9.328125 C-2.00867501 6.90053484 -2.00867501 6.90053484 -5.51171875 6.578125 C-6.68734375 6.475 -7.86296875 6.371875 -9.07421875 6.265625 C-9.70585938 6.07871094 -10.3375 5.89179688 -10.98828125 5.69921875 C-15.92684653 4.67266305 -21.53631963 6.44541214 -25.88671875 8.765625 C-26.60859375 9.260625 -27.33046875 9.755625 -28.07421875 10.265625 C-31.05779873 11.61533975 -32.77756179 12.265625 -36.07421875 12.265625 C-33.48129339 6.58406797 -29.39583694 2.03447696 -24.44921875 -1.734375 C-16.06943661 -4.21727341 -7.9895896 -3.29521535 0 0 Z " fill="#6A6A6A" transform="translate(73.07421875,24.734375)"/>
<path d="M0 0 C4.10264967 1.85596057 5.48765588 5.3731628 7.625 9.1875 C7.955 9.5175 8.285 9.8475 8.625 10.1875 C8.96484375 12.51171875 8.96484375 12.51171875 8.625 15.1875 C6.69140625 17.20703125 6.69140625 17.20703125 4.1875 19 C3.36378906 19.60457031 2.54007813 20.20914063 1.69140625 20.83203125 C-0.375 22.1875 -0.375 22.1875 -1.375 22.1875 C-3.13234451 17.21388346 -4.70084613 12.4459002 -5.375 7.1875 C-6.035 7.1875 -6.695 7.1875 -7.375 7.1875 C-4.3053857 0.33989887 -4.3053857 0.33989887 0 0 Z " fill="#0200ED" transform="translate(32.375,78.8125)"/>
<path d="M0 0 C3.37884427 1.47204728 5.6554212 3.40312821 8.3125 5.9375 C14.18040637 11.23878366 19.02039194 13.18575428 27 14 C27.33 13.34 27.66 12.68 28 12 C28 12.66 28 13.32 28 14 C33.47619273 12.96560804 38.04707225 11.65766855 43 9 C43.66 9 44.32 9 45 9 C43.98597467 11.69651428 43.33034366 12.81056399 40.79296875 14.265625 C39.93316406 14.59046875 39.07335937 14.9153125 38.1875 15.25 C37.33542969 15.58515625 36.48335937 15.9203125 35.60546875 16.265625 C32.93928914 17.01711191 30.75447334 17.13846545 28 17 C27.67 19.31 27.34 21.62 27 24 C26.01 23.34 25.02 22.68 24 22 C23.8125 19.375 23.8125 19.375 24 17 C22.72125 16.814375 21.4425 16.62875 20.125 16.4375 C11.75683614 14.57644148 4.84290957 8.94150371 0 2 C0 1.34 0 0.68 0 0 Z " fill="#DE00EA" transform="translate(33,77)"/>
<path d="M0 0 C7.27956688 0.36397834 11.6994015 4.6994015 16.625 9.625 C18.77048057 14.89117958 17.29367341 19.5980394 16 25 C15.01 25 14.02 25 13 25 C11.29633374 18.91748904 10.86746348 14.22895086 12 8 C10.8553125 7.814375 10.8553125 7.814375 9.6875 7.625 C7 7 7 7 4 5 C3.34 5.66 2.68 6.32 2 7 C0.68 6.34 -0.64 5.68 -2 5 C-1.34 3.35 -0.68 1.7 0 0 Z " fill="#05000D" transform="translate(68,39)"/>
<path d="M0 0 C2.64 0 5.28 0 8 0 C6.46638299 9.08062706 3.28685406 14.36924913 -4 20 C-3.71657321 17.60293301 -3.42356312 15.20768917 -3.125 12.8125 C-3.04636719 12.13896484 -2.96773438 11.46542969 -2.88671875 10.77148438 C-2.39528587 6.89672516 -1.64019099 3.54915277 0 0 Z " fill="#0500EA" transform="translate(81,66)"/>
<path d="M0 0 C0.88300781 0.36222656 1.76601562 0.72445313 2.67578125 1.09765625 C3.67158203 1.51337891 3.67158203 1.51337891 4.6875 1.9375 C4.6875 2.5975 4.6875 3.2575 4.6875 3.9375 C10.68070151 5.39683748 16.54595775 6.35259121 22.6875 6.9375 C21.87845897 11.73030002 19.42765409 13.07270113 15.6875 15.9375 C15.996875 15.339375 16.30625 14.74125 16.625 14.125 C17.78959704 11.84793228 17.78959704 11.84793228 18.6875 8.9375 C17.635625 9.164375 16.58375 9.39125 15.5 9.625 C11.16744339 9.98012759 10.09638952 9.44931333 6.6875 6.9375 C5.759375 6.421875 4.83125 5.90625 3.875 5.375 C3.153125 4.900625 2.43125 4.42625 1.6875 3.9375 C1.6875 3.2775 1.6875 2.6175 1.6875 1.9375 C0.6975 1.97875 -0.2925 2.02 -1.3125 2.0625 C-5.55085866 2.0798348 -9.24443985 1.07941162 -13.3125 -0.0625 C-13.3125 -0.7225 -13.3125 -1.3825 -13.3125 -2.0625 C-8.40384492 -3.69871836 -4.63862369 -1.91729779 0 0 Z " fill="#7B0C00" transform="translate(78.3125,5.0625)"/>
<path d="M0 0 C1.21816406 0.03480469 1.21816406 0.03480469 2.4609375 0.0703125 C3.68683594 0.09738281 3.68683594 0.09738281 4.9375 0.125 C5.87722656 0.15980469 5.87722656 0.15980469 6.8359375 0.1953125 C5.1484375 2.6953125 5.1484375 2.6953125 2.8359375 5.1953125 C0.0859375 5.5078125 0.0859375 5.5078125 -2.1640625 5.1953125 C-2.1434375 6.4328125 -2.1228125 7.6703125 -2.1015625 8.9453125 C-2.09639569 11.859395 -2.23390692 14.40484577 -3.1640625 17.1953125 C-4.8140625 17.5253125 -6.4640625 17.8553125 -8.1640625 18.1953125 C-8.68900047 12.02729131 -7.1735886 7.5882954 -4.1640625 2.1953125 C-2.1640625 0.1953125 -2.1640625 0.1953125 0 0 Z " fill="#000000" transform="translate(40.1640625,46.8046875)"/>
<path d="M0 0 C1.38028635 0.14349512 2.75922399 0.31666032 4.125 0.5625 C3.55910156 0.79582031 2.99320313 1.02914063 2.41015625 1.26953125 C-5.13288539 5.53747447 -10.79833408 14.55678897 -15.9375 21.4375 C-16.41453369 22.06744873 -16.89156738 22.69739746 -17.38305664 23.34643555 C-19.83940757 26.70796992 -21.47767833 29.29737355 -21.875 33.5625 C-22.205 33.5625 -22.535 33.5625 -22.875 33.5625 C-23.67759712 26.76717769 -21.30611172 23.47836524 -17.25 18.1875 C-16.135054 16.69264647 -15.02175436 15.19656349 -13.91015625 13.69921875 C-13.11182373 12.6326001 -13.11182373 12.6326001 -12.29736328 11.54443359 C-10.56574714 9.13158432 -9.13365785 6.59154783 -7.6875 4 C-5.50002861 0.58412877 -4.04384017 0.05015616 0 0 Z " fill="#017B00" transform="translate(22.875,-0.5625)"/>
<path d="M0 0 C0.66 0.33 1.32 0.66 2 1 C1.01 2.98 0.02 4.96 -1 7 C-0.34 7 0.32 7 1 7 C2.9078584 10.1749094 3.1609041 12.10585211 2.625 15.75 C2.45871094 16.94882812 2.45871094 16.94882812 2.2890625 18.171875 C2.19367187 18.77515625 2.09828125 19.3784375 2 20 C5.31697361 19.44008352 6.71174669 18.59855293 8.75 15.9375 C9.4925 14.968125 10.235 13.99875 11 13 C11.33 13.66 11.66 14.32 12 15 C9.69 18.3 7.38 21.6 5 25 C3.35 24.67 1.7 24.34 0 24 C-2.81617793 19.72514308 -2.22614366 14.61630819 -2.125 9.6875 C-2.11597656 8.85154297 -2.10695312 8.01558594 -2.09765625 7.15429688 C-2.07420989 5.10274031 -2.03834266 3.05133223 -2 1 C-1.34 0.67 -0.68 0.34 0 0 Z " fill="#028300" transform="translate(2,37)"/>
<path d="M0 0 C0 2.64 0 5.28 0 8 C-3.4019487 10.09350689 -6.05272412 10.17942163 -10 10 C-10.33 7.69 -10.66 5.38 -11 3 C-9.54293274 2.49632243 -8.08429904 1.99717444 -6.625 1.5 C-5.81289062 1.2215625 -5.00078125 0.943125 -4.1640625 0.65625 C-2 0 -2 0 0 0 Z " fill="#040004" transform="translate(71,81)"/>
<path d="M0 0 C0.33 0 0.66 0 1 0 C2.19287411 3.87684087 3 6.91621923 3 11 C3.598125 11.061875 4.19625 11.12375 4.8125 11.1875 C7 12 7 12 8.5 14.5625 C8.995 15.366875 9.49 16.17125 10 17 C11.32 17 12.64 17 14 17 C14.66 18.32 15.32 19.64 16 21 C17.65 21 19.3 21 21 21 C19.68 22.32 18.36 23.64 17 25 C16.2575 24.360625 15.515 23.72125 14.75 23.0625 C12.17665816 21.13249362 10.9835321 20.69615749 8 20 C6.25 18.625 6.25 18.625 5 17 C5 16.01 5 15.02 5 14 C4.01 14 3.02 14 2 14 C1.47061343 12.04396149 0.95173199 10.08507711 0.4375 8.125 C0.14746094 7.03445312 -0.14257812 5.94390625 -0.44140625 4.8203125 C-1 2 -1 2 0 0 Z " fill="#7C0B01" transform="translate(7,60)"/>
<path d="M0 0 C1.32 0.33 2.64 0.66 4 1 C0.98647244 9.8899063 -4.32262558 17.66131279 -13 22 C-11.50918351 17.39202176 -9.12406101 14.60468578 -6 11 C-5.67 10.34 -5.34 9.68 -5 9 C-4.01 9 -3.02 9 -2 9 C-1.34 6.03 -0.68 3.06 0 0 Z " fill="#D606EF" transform="translate(91,66)"/>
<path d="M0 0 C3.61941735 1.50239966 6.7321794 2.82145293 10 5 C10.9375 7.8125 10.9375 7.8125 11 11 C9.1875 13.5625 9.1875 13.5625 7 16 C6.32033324 17.66140763 5.65061095 19.32700041 5 21 C4.34 21.33 3.68 21.66 3 22 C2.75 19.25 2.75 19.25 3 16 C4.31328657 14.64691687 5.64499081 13.31129922 7 12 C6.89653794 8.68921412 5.35152756 6.27044041 3 4 C-0.12586875 3.66602213 -0.12586875 3.66602213 -3 4 C-2.01 2.68 -1.02 1.36 0 0 Z " fill="#00037A" transform="translate(110,25)"/>
<path d="M0 0 C3 0.125 3 0.125 4 1.125 C4.125 4.125 4.125 4.125 4 7.125 C3 8.125 3 8.125 0 8.25 C-3 8.125 -3 8.125 -4 7.125 C-4.125 4.125 -4.125 4.125 -4 1.125 C-3 0.125 -3 0.125 0 0 Z " fill="#000000" transform="translate(72,51.875)"/>
<path d="M0 0 C0.99 0.33 1.98 0.66 3 1 C0.08489571 4.01726916 -2.9818086 6.68394035 -6.25 9.3125 C-10.92914805 13.10606433 -15.50308232 16.99271806 -20 21 C-20 18 -20 18 -18.59472656 16.33007812 C-17.94987305 15.73646484 -17.30501953 15.14285156 -16.640625 14.53125 C-15.93679687 13.87769531 -15.23296875 13.22414063 -14.5078125 12.55078125 C-13.76273438 11.87402344 -13.01765625 11.19726562 -12.25 10.5 C-11.52039062 9.82324219 -10.79078125 9.14648438 -10.0390625 8.44921875 C-2.7380641 1.71902568 -2.7380641 1.71902568 0 0 Z " fill="#770F00" transform="translate(61,2)"/>
<path d="M0 0 C0.66 0 1.32 0 2 0 C2.33 2.31 2.66 4.62 3 7 C4.65 7 6.3 7 8 7 C8 7.99 8 8.98 8 10 C6.35 10 4.7 10 3 10 C2.34 12.97 1.68 15.94 1 19 C0.34 19 -0.32 19 -1 19 C-0.34 15.7 0.32 12.4 1 9 C0.34 8.67 -0.32 8.34 -1 8 C-0.34 8 0.32 8 1 8 C0.67 5.36 0.34 2.72 0 0 Z " fill="#E600FC" transform="translate(88,56)"/>
<path d="M0 0 C0.99 0 1.98 0 3 0 C3.33 0.66 3.66 1.32 4 2 C6.02463255 2.65213292 6.02463255 2.65213292 8 3 C7.41196203 6.02419525 6.77321882 9.01758453 6 12 C4.68 12.33 3.36 12.66 2 13 C1.87625 11.9275 1.7525 10.855 1.625 9.75 C1.09382821 6.56296928 0.43926875 4.77573258 -1 2 C-0.67 1.34 -0.34 0.68 0 0 Z " fill="#150200" transform="translate(23,52)"/>
<path d="M0 0 C1.98 0 3.96 0 6 0 C5.45859375 0.65355469 5.45859375 0.65355469 4.90625 1.3203125 C1.77267772 5.34173026 0.40065046 7.72572405 1 13 C1 13.99 1 14.98 1 16 C-1.5 18.1875 -1.5 18.1875 -4 20 C-3.71657321 17.60293301 -3.42356312 15.20768917 -3.125 12.8125 C-3.04636719 12.13896484 -2.96773438 11.46542969 -2.88671875 10.77148438 C-2.39528587 6.89672516 -1.64019099 3.54915277 0 0 Z " fill="#00000D" transform="translate(81,66)"/>
<path d="M0 0 C1.65 0 3.3 0 5 0 C5.6875 2.3125 5.6875 2.3125 6 5 C4.875 6.875 4.875 6.875 3 8 C0.3125 7.6875 0.3125 7.6875 -2 7 C-1.34 4.69 -0.68 2.38 0 0 Z " fill="#010001" transform="translate(43,55)"/>
<path d="M0 0 C-1.01514734 3.2710303 -2.03251736 4.01858135 -5.0625 5.75 C-9.32972367 7.41547759 -13.48576728 7.27638159 -18 7 C-15.6849061 4.6849061 -14.24734186 4.35239006 -11.125 3.5 C-7.49548305 2.50323714 -3.67536385 0 0 0 Z " fill="#E700F4" transform="translate(78,86)"/>
<path d="M0 0 C0.33 0.66 0.66 1.32 1 2 C-1.31 5.3 -3.62 8.6 -6 12 C-7.65 11.67 -9.3 11.34 -11 11 C-11 9.68 -11 8.36 -11 7 C-10.29875 7.144375 -9.5975 7.28875 -8.875 7.4375 C-4.39638453 6.75597156 -2.60018152 3.50265002 0 0 Z " fill="#067600" transform="translate(13,50)"/>
<path d="M0 0 C0 0.99 0 1.98 0 3 C-0.66 3.66 -1.32 4.32 -2 5 C-1.01 5.33 -0.02 5.66 1 6 C1 6.33 1 6.66 1 7 C-4.625 7.25 -4.625 7.25 -8 5 C-8 4.01 -8 3.02 -8 2 C-5.09399739 0.74335022 -3.20395416 0 0 0 Z " fill="#020002" transform="translate(58,84)"/>
<path d="M0 0 C-0.33 1.65 -0.66 3.3 -1 5 C-3.31 5 -5.62 5 -8 5 C-8 3.68 -8 2.36 -8 1 C-4.93251126 -0.86240388 -3.40254489 -1.2151946 0 0 Z " fill="#010001" transform="translate(69,47)"/>
<path d="M0 0 C1.65 0 3.3 0 5 0 C5.39804797 3.8146264 5.41653192 5.45950024 3.03125 8.5546875 C1.77828125 9.70324219 1.77828125 9.70324219 0.5 10.875 C-0.3353125 11.65617188 -1.170625 12.43734375 -2.03125 13.2421875 C-3.00578125 14.11230469 -3.00578125 14.11230469 -4 15 C-4.66 14.67 -5.32 14.34 -6 14 C-5.43410156 13.46890625 -4.86820313 12.9378125 -4.28515625 12.390625 C-3.55167969 11.68421875 -2.81820312 10.9778125 -2.0625 10.25 C-1.33160156 9.55390625 -0.60070313 8.8578125 0.15234375 8.140625 C2.00517646 5.99400275 2.60771565 4.76467068 3 2 C2.01 2 1.02 2 0 2 C0 1.34 0 0.68 0 0 Z " fill="#077200" transform="translate(52,0)"/>
<path d="M0 0 C1.32 0.33 2.64 0.66 4 1 C3.59988018 2.27613973 3.17907912 3.54580367 2.75 4.8125 C2.51796875 5.52019531 2.2859375 6.22789063 2.046875 6.95703125 C1 9 1 9 -3 12 C-2.01 8.04 -1.02 4.08 0 0 Z " fill="#0F07D1" transform="translate(91,66)"/>
<path d="M0 0 C1.875 0.3125 1.875 0.3125 4 1 C6.56616632 4.84924948 6.55097676 7.4349304 7 12 C6.01 11.67 5.02 11.34 4 11 C3.67 8.36 3.34 5.72 3 3 C2.01 2.67 1.02 2.34 0 2 C0 1.34 0 0.68 0 0 Z " fill="#030003" transform="translate(37,71)"/>
<path d="M0 0 C0.66 0 1.32 0 2 0 C0.43638038 3.83797544 -2.02510083 6.1667627 -5 9 C-6.1446875 10.1446875 -6.1446875 10.1446875 -7.3125 11.3125 C-7.869375 11.869375 -8.42625 12.42625 -9 13 C-9.66 12.67 -10.32 12.34 -11 12 C-8.22095576 8.39753524 -5.25893558 5.17317412 -2 2 C-1.34 1.34 -0.68 0.68 0 0 Z " fill="#C91600" transform="translate(39,23)"/>
<path d="M0 0 C0.99 0.33 1.98 0.66 3 1 C3.33 4.96 3.66 8.92 4 13 C3.34 13 2.68 13 2 13 C1.87625 11.9275 1.7525 10.855 1.625 9.75 C1.09382821 6.56296928 0.43926875 4.77573258 -1 2 C-0.67 1.34 -0.34 0.68 0 0 Z " fill="#710C00" transform="translate(23,52)"/>
<path d="M0 0 C0.99 0.33 1.98 0.66 3 1 C4.1875 3.5625 4.1875 3.5625 5 6 C4.34 6 3.68 6 3 6 C3.33 8.64 3.66 11.28 4 14 C3.01 14 2.02 14 1 14 C1.01160156 13.32453125 1.02320312 12.6490625 1.03515625 11.953125 C1.04417969 11.06109375 1.05320312 10.1690625 1.0625 9.25 C1.07990234 7.92742188 1.07990234 7.92742188 1.09765625 6.578125 C1.00826198 4.2181162 0.66912821 2.25501476 0 0 Z " fill="#78009B" transform="translate(85,50)"/>
<path d="M0 0 C0.99 0 1.98 0 3 0 C6.125 6.625 6.125 6.625 5 10 C4.01 9.67 3.02 9.34 2 9 C2 8.34 2 7.68 2 7 C1.34 6.67 0.68 6.34 0 6 C0 4.02 0 2.04 0 0 Z " fill="#000177" transform="translate(104,14)"/>
<path d="M0 0 C0.99 0.33 1.98 0.66 3 1 C1.99088542 2.72526042 0.98177083 4.45052083 -0.02734375 6.17578125 C-1.13901247 8.13819555 -1.13901247 8.13819555 -2 11 C-2.99 11.33 -3.98 11.66 -5 12 C-4.54738642 10.56068883 -4.08767021 9.12361001 -3.625 7.6875 C-3.24214844 6.48673828 -3.24214844 6.48673828 -2.8515625 5.26171875 C-2 3 -2 3 0 0 Z " fill="#DC00E9" transform="translate(35,47)"/>
<path d="M0 0 C0.66 0.33 1.32 0.66 2 1 C0.92173635 2.27513763 -0.16285519 3.54492569 -1.25 4.8125 C-1.85328125 5.52019531 -2.4565625 6.22789063 -3.078125 6.95703125 C-4.92370398 8.91889671 -6.79945332 10.45669625 -9 12 C-7.55575365 8.76138697 -5.74227753 6.38030837 -3.375 3.75 C-2.74335938 3.04359375 -2.11171875 2.3371875 -1.4609375 1.609375 C-0.97882812 1.07828125 -0.49671875 0.5471875 0 0 Z " fill="#0A7700" transform="translate(30,30)"/>
<path d="M0 0 C0.99 0 1.98 0 3 0 C3.33 3.63 3.66 7.26 4 11 C0.88776687 6.85035583 0.47996422 4.99162787 0 0 Z " fill="#060006" transform="translate(32,67)"/>
<path d="M0 0 C0.5625 1.9375 0.5625 1.9375 1 4 C0 5 0 5 -3.0625 5.0625 C-4.5165625 5.0315625 -4.5165625 5.0315625 -6 5 C-2.25 1.125 -2.25 1.125 0 0 Z " fill="#050005" transform="translate(52,47)"/>
<path d="M0 0 C1.98 0 3.96 0 6 0 C6 0.99 6 1.98 6 3 C4.35 3.33 2.7 3.66 1 4 C0.67 2.68 0.34 1.36 0 0 Z " fill="#020002" transform="translate(52,68)"/>
<path d="M0 0 C0 3 0 3 -1.53125 4.82421875 C-2.1809375 5.43910156 -2.830625 6.05398437 -3.5 6.6875 C-4.1496875 7.31011719 -4.799375 7.93273438 -5.46875 8.57421875 C-5.9740625 9.04472656 -6.479375 9.51523437 -7 10 C-7.33 9.01 -7.66 8.02 -8 7 C-5.36 4.69 -2.72 2.38 0 0 Z " fill="#731D00" transform="translate(27,36)"/>
<path d="M0 0 C0.99 0.33 1.98 0.66 3 1 C1.25 5.875 1.25 5.875 -1 7 C-1.04254356 5.00045254 -1.04080783 2.99958364 -1 1 C-0.67 0.67 -0.34 0.34 0 0 Z " fill="#0F1176" transform="translate(114,40)"/>
<path d="M0 0 C0.99 0.495 0.99 0.495 2 1 C1.01 1.495 1.01 1.495 0 2 C0 1.34 0 0.68 0 0 Z " fill="#000000" transform="translate(2,106)"/>
<path d="M0 0 C0.99 0.495 0.99 0.495 2 1 C1.01 1.495 1.01 1.495 0 2 C0 1.34 0 0.68 0 0 Z " fill="#000000" transform="translate(51,72)"/>
<path d="" fill="#000000" transform="translate(0,0)"/>
<path d="" fill="#000000" transform="translate(0,0)"/>
<path d="" fill="#000000" transform="translate(0,0)"/>
</svg>
